<svg width="24" height="25" viewBox="0 0 24 25" fill="none" xmlns="http://www.w3.org/2000/svg">
<g clip-path="url(#clip0_2661_1780)">
<path d="M4 8.58301C4 7.52214 4.42143 6.50473 5.17157 5.75458C5.92172 5.00444 6.93913 4.58301 8 4.58301H16C17.0609 4.58301 18.0783 5.00444 18.8284 5.75458C19.5786 6.50473 20 7.52214 20 8.58301V16.583C20 17.6439 19.5786 18.6613 18.8284 19.4114C18.0783 20.1616 17.0609 20.583 16 20.583H8C6.93913 20.583 5.92172 20.1616 5.17157 19.4114C4.42143 18.6613 4 17.6439 4 16.583V8.58301Z" stroke="white" stroke-width="1.75" stroke-linecap="round" stroke-linejoin="round"/>
<path d="M9 12.583C9 13.3787 9.31607 14.1417 9.87868 14.7043C10.4413 15.2669 11.2044 15.583 12 15.583C12.7956 15.583 13.5587 15.2669 14.1213 14.7043C14.6839 14.1417 15 13.3787 15 12.583C15 11.7874 14.6839 11.0243 14.1213 10.4617C13.5587 9.89908 12.7956 9.58301 12 9.58301C11.2044 9.58301 10.4413 9.89908 9.87868 10.4617C9.31607 11.0243 9 11.7874 9 12.583Z" stroke="white" stroke-width="1.75" stroke-linecap="round" stroke-linejoin="round"/>
<path d="M16.5 8.08301V8.09301" stroke="white" stroke-width="1.75" stroke-linecap="round" stroke-linejoin="round"/>
</g>
<defs>
<clipPath id="clip0_2661_1780">
<rect width="24" height="24" fill="white" transform="translate(0 0.583008)"/>
</clipPath>
</defs>
</svg>
