<svg width="78" height="78" viewBox="0 0 78 78" fill="none" xmlns="http://www.w3.org/2000/svg">
<path d="M39 69C55.5685 69 69 55.5685 69 39C69 22.4315 55.5685 9 39 9C22.4315 9 9 22.4315 9 39C9 55.5685 22.4315 69 39 69Z" fill="white"/>
<path d="M39 73.5C58.0538 73.5 73.5 58.0538 73.5 39C73.5 19.9462 58.0538 4.5 39 4.5C19.9462 4.5 4.5 19.9462 4.5 39C4.5 58.0538 19.9462 73.5 39 73.5Z" stroke="white" stroke-opacity="0.42" stroke-width="9"/>
<path d="M31.509 38.9547C31.509 35.3426 31.514 31.7304 31.504 28.1207C31.5014 27.5216 31.5845 26.9855 32.161 26.6658C32.7374 26.3486 33.2383 26.5676 33.7392 26.8898C39.3576 30.5095 44.9836 34.1192 50.6045 37.7339C51.8304 38.5218 51.8203 39.4733 50.5843 40.2687C44.9785 43.8734 39.3727 47.4755 33.7669 51.0801C33.4347 51.2941 33.1049 51.503 32.6946 51.4854C31.9847 51.4552 31.5115 50.9014 31.509 50.0833C31.504 47.1734 31.5065 44.266 31.5065 41.3562C31.509 40.5557 31.509 39.7552 31.509 38.9547Z" fill="#1751EF"/>
</svg>
