<svg width="48" height="48" viewBox="0 0 48 48" fill="none" xmlns="http://www.w3.org/2000/svg">
<path d="M47.1723 39.7241H0.827623C0.370593 39.7241 0 39.3536 0 38.8965V9.10349C0 8.64646 0.370593 8.27586 0.827623 8.27586H47.1724C47.6294 8.27586 48 8.64646 48 9.10349V38.8965C47.9999 39.3536 47.6293 39.7241 47.1723 39.7241Z" fill="#F5F5F5"/>
<path d="M47.9999 10.6951H0V9.10349C0 8.64646 0.370593 8.27586 0.827623 8.27586H47.1724C47.6294 8.27586 48 8.64646 48 9.10349L47.9999 10.6951Z" fill="#FF4B55"/>
<path d="M47.9999 17.9523H0V20.3714H47.9999V17.9523Z" fill="#FF4B55"/>
<path d="M47.9999 13.1138H0V15.533H47.9999V13.1138Z" fill="#FF4B55"/>
<path d="M47.9999 25.2096H0.827623C0.370593 25.2096 0 24.839 0 24.382V22.7904H47.9999V25.2096Z" fill="#FF4B55"/>
<path d="M47.9999 32.4675H0V34.8866H47.9999V32.4675Z" fill="#FF4B55"/>
<path d="M47.1723 39.7241H0.827623C0.370593 39.7241 0 39.3536 0 38.8965V37.305H47.9999V38.8966C47.9999 39.3536 47.6293 39.7241 47.1723 39.7241Z" fill="#FF4B55"/>
<path d="M47.9999 27.6291H0V30.0482H47.9999V27.6291Z" fill="#FF4B55"/>
<path d="M21.5172 8.27596H0.827623C0.370593 8.27596 0 8.64645 0 9.10348V24.3819C0 24.8389 0.370593 25.2095 0.827623 25.2095H21.5173C21.9743 25.2095 22.3449 24.8389 22.3449 24.3819V9.10348C22.3448 8.64645 21.9742 8.27596 21.5172 8.27596Z" fill="#41479B"/>
<path d="M2.32372 10.1787L2.50691 10.728L3.086 10.7324C3.161 10.7331 3.19203 10.8287 3.13175 10.8733L2.66591 11.2173L2.84066 11.7694C2.86334 11.8408 2.78187 11.9001 2.72084 11.8564L2.24975 11.5198L1.77866 11.8565C1.71763 11.9001 1.63635 11.8409 1.65885 11.7695L1.8336 11.2174L1.36775 10.8733C1.30747 10.8287 1.3385 10.7332 1.4135 10.7325L1.99259 10.7281L2.17578 10.1788C2.19941 10.1075 2.29991 10.1075 2.32372 10.1787Z" fill="#F5F5F5"/>
<path d="M2.32372 13.0492L2.50691 13.5986L3.086 13.603C3.161 13.6037 3.19203 13.6993 3.13175 13.7438L2.66591 14.0879L2.84066 14.64C2.86334 14.7114 2.78187 14.7707 2.72084 14.727L2.24975 14.3903L1.77866 14.7271C1.71763 14.7707 1.63635 14.7115 1.65885 14.6401L1.8336 14.088L1.36775 13.7439C1.30747 13.6993 1.3385 13.6038 1.4135 13.6031L1.99259 13.5987L2.17578 13.0493C2.19941 12.9782 2.29991 12.9782 2.32372 13.0492Z" fill="#F5F5F5"/>
<path d="M2.32372 15.9231L2.50691 16.4724L3.086 16.4768C3.161 16.4775 3.19203 16.5731 3.13175 16.6176L2.66591 16.9617L2.84066 17.5138C2.86334 17.5852 2.78187 17.6445 2.72084 17.6008L2.24975 17.2641L1.77866 17.6009C1.71763 17.6445 1.63635 17.5853 1.65885 17.5139L1.8336 16.9618L1.36775 16.6177C1.30747 16.5731 1.3385 16.4776 1.4135 16.4769L1.99259 16.4725L2.17578 15.9231C2.19941 15.852 2.29991 15.852 2.32372 15.9231Z" fill="#F5F5F5"/>
<path d="M2.32372 18.7969L2.50691 19.3463L3.086 19.3507C3.161 19.3514 3.19203 19.447 3.13175 19.4915L2.66591 19.8356L2.84066 20.3877C2.86334 20.4591 2.78187 20.5184 2.72084 20.4747L2.24975 20.138L1.77866 20.4748C1.71763 20.5184 1.63635 20.4592 1.65885 20.3878L1.8336 19.8357L1.36775 19.4916C1.30747 19.447 1.3385 19.3515 1.4135 19.3508L1.99259 19.3464L2.17578 18.797C2.19941 18.7258 2.29991 18.7258 2.32372 18.7969Z" fill="#F5F5F5"/>
<path d="M2.32372 21.6708L2.50691 22.2201L3.086 22.2245C3.161 22.2252 3.19203 22.3208 3.13175 22.3654L2.66591 22.7094L2.84066 23.2615C2.86334 23.3329 2.78187 23.3922 2.72084 23.3485L2.24975 23.0119L1.77866 23.3486C1.71763 23.3922 1.63635 23.333 1.65885 23.2616L1.8336 22.7095L1.36775 22.3655C1.30747 22.3208 1.3385 22.2253 1.4135 22.2246L1.99259 22.2202L2.17578 21.6709C2.19941 21.5995 2.29991 21.5995 2.32372 21.6708Z" fill="#F5F5F5"/>
<path d="M4.55431 11.5844L4.7375 12.1338L5.31659 12.1382C5.39159 12.1388 5.42262 12.2345 5.36234 12.279L4.8965 12.6231L5.07125 13.1752C5.09393 13.2466 5.01247 13.3058 4.95143 13.2622L4.48034 12.9254L4.00925 13.2622C3.94822 13.3057 3.86694 13.2466 3.88944 13.1752L4.06419 12.6231L3.59834 12.279C3.53806 12.2344 3.56909 12.1388 3.64409 12.1382L4.22319 12.1338L4.40637 11.5844C4.4299 11.5133 4.53059 11.5133 4.55431 11.5844Z" fill="#F5F5F5"/>
<path d="M4.55431 14.4583L4.7375 15.0077L5.31659 15.0121C5.39159 15.0127 5.42262 15.1084 5.36234 15.1529L4.8965 15.497L5.07125 16.0491C5.09393 16.1205 5.01247 16.1797 4.95143 16.1361L4.48034 15.7993L4.00925 16.1361C3.94822 16.1796 3.86694 16.1206 3.88944 16.0491L4.06419 15.497L3.59834 15.1529C3.53806 15.1083 3.56909 15.0127 3.64409 15.0121L4.22319 15.0077L4.40637 14.4583C4.4299 14.3871 4.53059 14.3871 4.55431 14.4583Z" fill="#F5F5F5"/>
<path d="M4.55431 17.3321L4.7375 17.8815L5.31659 17.8859C5.39159 17.8866 5.42262 17.9822 5.36234 18.0267L4.8965 18.3708L5.07125 18.9229C5.09393 18.9943 5.01247 19.0535 4.95143 19.0099L4.48034 18.6731L4.00925 19.0099C3.94822 19.0535 3.86694 18.9943 3.88944 18.9229L4.06419 18.3708L3.59834 18.0267C3.53806 17.9821 3.56909 17.8866 3.64409 17.8859L4.22319 17.8815L4.40637 17.3321C4.4299 17.261 4.53059 17.261 4.55431 17.3321Z" fill="#F5F5F5"/>
<path d="M4.55431 20.2059L4.7375 20.7553L5.31659 20.7597C5.39159 20.7604 5.42262 20.856 5.36234 20.9005L4.8965 21.2446L5.07125 21.7967C5.09393 21.8681 5.01247 21.9273 4.95143 21.8837L4.48034 21.5469L4.00925 21.8837C3.94822 21.9273 3.86694 21.8681 3.88944 21.7967L4.06419 21.2446L3.59834 20.9005C3.53806 20.8559 3.56909 20.7604 3.64409 20.7597L4.22319 20.7553L4.40637 20.2059C4.4299 20.1349 4.53059 20.1349 4.55431 20.2059Z" fill="#F5F5F5"/>
<path d="M6.7849 10.1754L6.96809 10.7248L7.54718 10.7292C7.62218 10.7299 7.65321 10.8255 7.59293 10.87L7.12709 11.2141L7.30184 11.7662C7.32452 11.8376 7.24306 11.8969 7.18203 11.8532L6.71093 11.5164L6.23984 11.8532C6.17881 11.8968 6.09753 11.8376 6.12003 11.7662L6.29478 11.2141L5.82893 10.87C5.76865 10.8254 5.79968 10.7299 5.87468 10.7292L6.45378 10.7248L6.63696 10.1754C6.66059 10.1043 6.76118 10.1043 6.7849 10.1754Z" fill="#F5F5F5"/>
<path d="M6.7849 13.0492L6.96809 13.5986L7.54718 13.603C7.62218 13.6037 7.65321 13.6993 7.59293 13.7438L7.12709 14.0879L7.30184 14.64C7.32452 14.7114 7.24306 14.7707 7.18203 14.727L6.71093 14.3902L6.23984 14.727C6.17881 14.7706 6.09753 14.7114 6.12003 14.64L6.29478 14.0879L5.82893 13.7438C5.76865 13.6992 5.79968 13.6037 5.87468 13.603L6.45378 13.5986L6.63696 13.0492C6.66059 12.9782 6.76118 12.9782 6.7849 13.0492Z" fill="#F5F5F5"/>
<path d="M6.7849 15.923L6.96809 16.4724L7.54718 16.4768C7.62218 16.4775 7.65321 16.5731 7.59293 16.6176L7.12709 16.9617L7.30184 17.5138C7.32452 17.5852 7.24306 17.6445 7.18203 17.6008L6.71093 17.264L6.23984 17.6008C6.17881 17.6444 6.09753 17.5852 6.12003 17.5138L6.29478 16.9617L5.82893 16.6176C5.76865 16.573 5.79968 16.4775 5.87468 16.4768L6.45378 16.4724L6.63696 15.923C6.66059 15.852 6.76118 15.852 6.7849 15.923Z" fill="#F5F5F5"/>
<path d="M6.7849 18.797L6.96809 19.3463L7.54718 19.3507C7.62218 19.3514 7.65321 19.447 7.59293 19.4916L7.12709 19.8356L7.30184 20.3877C7.32452 20.4591 7.24306 20.5184 7.18203 20.4747L6.71093 20.138L6.23984 20.4747C6.17881 20.5183 6.09753 20.4591 6.12003 20.3877L6.29478 19.8356L5.82893 19.4916C5.76865 19.4469 5.79968 19.3514 5.87468 19.3507L6.45378 19.3463L6.63696 18.797C6.66059 18.7258 6.76118 18.7258 6.7849 18.797Z" fill="#F5F5F5"/>
<path d="M6.7849 21.6708L6.96809 22.2201L7.54718 22.2245C7.62218 22.2252 7.65321 22.3208 7.59293 22.3654L7.12709 22.7094L7.30184 23.2615C7.32452 23.3329 7.24306 23.3922 7.18203 23.3485L6.71093 23.0118L6.23984 23.3485C6.17881 23.3921 6.09753 23.3329 6.12003 23.2615L6.29478 22.7094L5.82893 22.3654C5.76865 22.3207 5.79968 22.2252 5.87468 22.2245L6.45378 22.2201L6.63696 21.6708C6.66059 21.5995 6.76118 21.5995 6.7849 21.6708Z" fill="#F5F5F5"/>
<path d="M9.01513 11.5845L9.19831 12.1339L9.77741 12.1383C9.85241 12.139 9.88344 12.2346 9.82316 12.2791L9.35731 12.6232L9.53206 13.1753C9.55475 13.2467 9.47328 13.306 9.41225 13.2623L8.94116 12.9255L8.47006 13.2623C8.40903 13.3059 8.32775 13.2467 8.35025 13.1753L8.525 12.6232L8.05916 12.2791C7.99888 12.2345 8.02991 12.139 8.10491 12.1383L8.684 12.1339L8.86719 11.5845C8.89072 11.5135 8.99141 11.5135 9.01513 11.5845Z" fill="#F5F5F5"/>
<path d="M9.01513 14.4582L9.19831 15.0075L9.77741 15.0119C9.85241 15.0126 9.88344 15.1082 9.82316 15.1527L9.35731 15.4968L9.53206 16.0489C9.55475 16.1203 9.47328 16.1796 9.41225 16.1359L8.94116 15.7991L8.47006 16.1359C8.40903 16.1795 8.32775 16.1204 8.35025 16.0489L8.525 15.4968L8.05916 15.1527C7.99888 15.1081 8.02991 15.0126 8.10491 15.0119L8.684 15.0075L8.86719 14.4582C8.89072 14.387 8.99141 14.387 9.01513 14.4582Z" fill="#F5F5F5"/>
<path d="M9.01513 17.3322L9.19831 17.8815L9.77741 17.886C9.85241 17.8866 9.88344 17.9822 9.82316 18.0268L9.35731 18.3708L9.53206 18.9229C9.55475 18.9944 9.47328 19.0536 9.41225 19.0099L8.94116 18.6732L8.47006 19.0099C8.40903 19.0535 8.32775 18.9944 8.35025 18.9229L8.525 18.3708L8.05916 18.0268C7.99888 17.9821 8.02991 17.8866 8.10491 17.886L8.684 17.8815L8.86719 17.3322C8.89072 17.261 8.99141 17.261 9.01513 17.3322Z" fill="#F5F5F5"/>
<path d="M9.01513 20.2061L9.19831 20.7555L9.77741 20.7599C9.85241 20.7606 9.88344 20.8562 9.82316 20.9007L9.35731 21.2448L9.53206 21.7969C9.55475 21.8683 9.47328 21.9276 9.41225 21.8839L8.94116 21.5471L8.47006 21.8839C8.40903 21.9275 8.32775 21.8683 8.35025 21.7969L8.525 21.2448L8.05916 20.9007C7.99888 20.8561 8.02991 20.7606 8.10491 20.7599L8.684 20.7555L8.86719 20.2061C8.89072 20.1351 8.99141 20.1351 9.01513 20.2061Z" fill="#F5F5F5"/>
<path d="M11.2457 10.1754L11.4289 10.7248L12.008 10.7292C12.083 10.7299 12.114 10.8255 12.0537 10.87L11.5879 11.2141L11.7626 11.7662C11.7853 11.8376 11.7038 11.8969 11.6428 11.8532L11.1716 11.5164L10.7005 11.8532C10.6395 11.8968 10.5582 11.8376 10.5807 11.7662L10.7555 11.2141L10.2896 10.87C10.2293 10.8254 10.2604 10.7299 10.3354 10.7292L10.9145 10.7248L11.0977 10.1754C11.1214 10.1043 11.222 10.1043 11.2457 10.1754Z" fill="#F5F5F5"/>
<path d="M11.2457 13.0494L11.4289 13.5988L12.008 13.6032C12.083 13.6038 12.114 13.6995 12.0537 13.744L11.5879 14.088L11.7626 14.6401C11.7853 14.7116 11.7038 14.7708 11.6428 14.7271L11.1716 14.3904L10.7005 14.7271C10.6395 14.7707 10.5582 14.7116 10.5807 14.6401L10.7555 14.088L10.2896 13.744C10.2293 13.6994 10.2604 13.6038 10.3354 13.6032L10.9145 13.5988L11.0977 13.0494C11.1214 12.9783 11.222 12.9783 11.2457 13.0494Z" fill="#F5F5F5"/>
<path d="M11.2457 15.9229L11.4289 16.4723L12.008 16.4767C12.083 16.4774 12.114 16.573 12.0537 16.6175L11.5879 16.9616L11.7626 17.5137C11.7853 17.5851 11.7038 17.6444 11.6428 17.6007L11.1716 17.2639L10.7005 17.6007C10.6395 17.6443 10.5582 17.5851 10.5807 17.5137L10.7555 16.9616L10.2896 16.6175C10.2293 16.5729 10.2604 16.4774 10.3354 16.4767L10.9145 16.4723L11.0977 15.9229C11.1214 15.8519 11.222 15.8519 11.2457 15.9229Z" fill="#F5F5F5"/>
<path d="M11.2457 18.797L11.4289 19.3464L12.008 19.3508C12.083 19.3515 12.114 19.4471 12.0537 19.4916L11.5879 19.8357L11.7626 20.3878C11.7853 20.4592 11.7038 20.5185 11.6428 20.4748L11.1716 20.138L10.7005 20.4748C10.6395 20.5184 10.5582 20.4592 10.5807 20.3878L10.7555 19.8357L10.2896 19.4916C10.2293 19.447 10.2604 19.3515 10.3354 19.3508L10.9145 19.3464L11.0977 18.797C11.1214 18.7259 11.222 18.7259 11.2457 18.797Z" fill="#F5F5F5"/>
<path d="M11.2457 21.6706L11.4289 22.22L12.008 22.2244C12.083 22.2251 12.114 22.3207 12.0537 22.3652L11.5879 22.7093L11.7626 23.2614C11.7853 23.3328 11.7038 23.3921 11.6428 23.3484L11.1716 23.0116L10.7005 23.3484C10.6395 23.392 10.5582 23.3328 10.5807 23.2614L10.7555 22.7093L10.2896 22.3652C10.2293 22.3206 10.2604 22.2251 10.3354 22.2244L10.9145 22.22L11.0977 21.6706C11.1214 21.5994 11.222 21.5994 11.2457 21.6706Z" fill="#F5F5F5"/>
<path d="M13.477 11.5845L13.6602 12.1339L14.2393 12.1383C14.3143 12.139 14.3453 12.2346 14.2851 12.2791L13.8192 12.6232L13.994 13.1753C14.0167 13.2467 13.9352 13.306 13.8742 13.2623L13.4031 12.9255L12.932 13.2623C12.8709 13.3059 12.7897 13.2467 12.8122 13.1753L12.9869 12.6232L12.5211 12.2791C12.4608 12.2345 12.4918 12.139 12.5668 12.1383L13.1459 12.1339L13.3291 11.5845C13.3528 11.5135 13.4533 11.5135 13.477 11.5845Z" fill="#F5F5F5"/>
<path d="M13.477 14.4582L13.6602 15.0075L14.2393 15.0119C14.3143 15.0126 14.3453 15.1082 14.2851 15.1527L13.8192 15.4968L13.994 16.0489C14.0167 16.1203 13.9352 16.1796 13.8742 16.1359L13.4031 15.7991L12.932 16.1359C12.8709 16.1795 12.7897 16.1204 12.8122 16.0489L12.9869 15.4968L12.5211 15.1527C12.4608 15.1081 12.4918 15.0126 12.5668 15.0119L13.1459 15.0075L13.3291 14.4582C13.3528 14.387 13.4533 14.387 13.477 14.4582Z" fill="#F5F5F5"/>
<path d="M13.477 17.3322L13.6602 17.8815L14.2393 17.886C14.3143 17.8866 14.3453 17.9822 14.2851 18.0268L13.8192 18.3708L13.994 18.9229C14.0167 18.9944 13.9352 19.0536 13.8742 19.0099L13.4031 18.6732L12.932 19.0099C12.8709 19.0535 12.7897 18.9944 12.8122 18.9229L12.9869 18.3708L12.5211 18.0268C12.4608 17.9821 12.4918 17.8866 12.5668 17.886L13.1459 17.8815L13.3291 17.3322C13.3528 17.261 13.4533 17.261 13.477 17.3322Z" fill="#F5F5F5"/>
<path d="M13.477 20.2061L13.6602 20.7555L14.2393 20.7599C14.3143 20.7606 14.3453 20.8562 14.2851 20.9007L13.8192 21.2448L13.994 21.7969C14.0167 21.8683 13.9352 21.9276 13.8742 21.8839L13.4031 21.5471L12.932 21.8839C12.8709 21.9275 12.7897 21.8683 12.8122 21.7969L12.9869 21.2448L12.5211 20.9007C12.4608 20.8561 12.4918 20.7606 12.5668 20.7599L13.1459 20.7555L13.3291 20.2061C13.3528 20.1351 13.4533 20.1351 13.477 20.2061Z" fill="#F5F5F5"/>
<path d="M15.7074 10.1754L15.8906 10.7248L16.4697 10.7292C16.5447 10.7299 16.5758 10.8255 16.5155 10.87L16.0496 11.2141L16.2244 11.7662C16.2471 11.8376 16.1656 11.8969 16.1046 11.8532L15.6335 11.5164L15.1624 11.8532C15.1014 11.8968 15.0201 11.8376 15.0426 11.7662L15.2173 11.2141L14.7515 10.87C14.6912 10.8254 14.7222 10.7299 14.7972 10.7292L15.3763 10.7248L15.5595 10.1754C15.583 10.1043 15.6837 10.1043 15.7074 10.1754Z" fill="#F5F5F5"/>
<path d="M15.7074 13.0492L15.8906 13.5986L16.4697 13.603C16.5447 13.6037 16.5758 13.6993 16.5155 13.7438L16.0496 14.0879L16.2244 14.64C16.2471 14.7114 16.1656 14.7707 16.1046 14.727L15.6335 14.3902L15.1624 14.727C15.1014 14.7706 15.0201 14.7114 15.0426 14.64L15.2173 14.0879L14.7515 13.7438C14.6912 13.6992 14.7222 13.6037 14.7972 13.603L15.3763 13.5986L15.5595 13.0492C15.583 12.9782 15.6837 12.9782 15.7074 13.0492Z" fill="#F5F5F5"/>
<path d="M15.7074 15.923L15.8906 16.4724L16.4697 16.4768C16.5447 16.4775 16.5758 16.5731 16.5155 16.6176L16.0496 16.9617L16.2244 17.5138C16.2471 17.5852 16.1656 17.6445 16.1046 17.6008L15.6335 17.264L15.1624 17.6008C15.1014 17.6444 15.0201 17.5852 15.0426 17.5138L15.2173 16.9617L14.7515 16.6176C14.6912 16.573 14.7222 16.4775 14.7972 16.4768L15.3763 16.4724L15.5595 15.923C15.583 15.852 15.6837 15.852 15.7074 15.923Z" fill="#F5F5F5"/>
<path d="M15.7074 18.797L15.8906 19.3463L16.4697 19.3507C16.5447 19.3514 16.5758 19.447 16.5155 19.4916L16.0496 19.8356L16.2244 20.3877C16.2471 20.4591 16.1656 20.5184 16.1046 20.4747L15.6335 20.138L15.1624 20.4747C15.1014 20.5183 15.0201 20.4591 15.0426 20.3877L15.2173 19.8356L14.7515 19.4916C14.6912 19.4469 14.7222 19.3514 14.7972 19.3507L15.3763 19.3463L15.5595 18.797C15.583 18.7258 15.6837 18.7258 15.7074 18.797Z" fill="#F5F5F5"/>
<path d="M15.7074 21.6708L15.8906 22.2201L16.4697 22.2245C16.5447 22.2252 16.5758 22.3208 16.5155 22.3654L16.0496 22.7094L16.2244 23.2615C16.2471 23.3329 16.1656 23.3922 16.1046 23.3485L15.6335 23.0118L15.1624 23.3485C15.1014 23.3921 15.0201 23.3329 15.0426 23.2615L15.2173 22.7094L14.7515 22.3654C14.6912 22.3207 14.7222 22.2252 14.7972 22.2245L15.3763 22.2201L15.5595 21.6708C15.583 21.5995 15.6837 21.5995 15.7074 21.6708Z" fill="#F5F5F5"/>
<path d="M17.938 11.5844L18.1212 12.1338L18.7003 12.1382C18.7753 12.1388 18.8063 12.2345 18.7461 12.279L18.2802 12.6231L18.455 13.1752C18.4777 13.2466 18.3962 13.3058 18.3352 13.2622L17.8641 12.9254L17.393 13.2622C17.3319 13.3057 17.2507 13.2466 17.2732 13.1752L17.4479 12.6231L16.9821 12.279C16.9218 12.2344 16.9528 12.1388 17.0278 12.1382L17.6069 12.1338L17.7901 11.5844C17.8137 11.5133 17.9144 11.5133 17.938 11.5844Z" fill="#F5F5F5"/>
<path d="M17.938 14.4583L18.1212 15.0077L18.7003 15.0121C18.7753 15.0127 18.8063 15.1084 18.7461 15.1529L18.2802 15.497L18.455 16.0491C18.4777 16.1205 18.3962 16.1797 18.3352 16.1361L17.8641 15.7993L17.393 16.1361C17.3319 16.1796 17.2507 16.1206 17.2732 16.0491L17.4479 15.497L16.9821 15.1529C16.9218 15.1083 16.9528 15.0127 17.0278 15.0121L17.6069 15.0077L17.7901 14.4583C17.8137 14.3871 17.9144 14.3871 17.938 14.4583Z" fill="#F5F5F5"/>
<path d="M17.938 17.3321L18.1212 17.8815L18.7003 17.8859C18.7753 17.8866 18.8063 17.9822 18.7461 18.0267L18.2802 18.3708L18.455 18.9229C18.4777 18.9943 18.3962 19.0535 18.3352 19.0099L17.8641 18.6731L17.393 19.0099C17.3319 19.0535 17.2507 18.9943 17.2732 18.9229L17.4479 18.3708L16.9821 18.0267C16.9218 17.9821 16.9528 17.8866 17.0278 17.8859L17.6069 17.8815L17.7901 17.3321C17.8137 17.261 17.9144 17.261 17.938 17.3321Z" fill="#F5F5F5"/>
<path d="M17.938 20.2059L18.1212 20.7553L18.7003 20.7597C18.7753 20.7604 18.8063 20.856 18.7461 20.9005L18.2802 21.2446L18.455 21.7967C18.4777 21.8681 18.3962 21.9273 18.3352 21.8837L17.8641 21.5469L17.393 21.8837C17.3319 21.9273 17.2507 21.8681 17.2732 21.7967L17.4479 21.2446L16.9821 20.9005C16.9218 20.8559 16.9528 20.7604 17.0278 20.7597L17.6069 20.7553L17.7901 20.2059C17.8137 20.1349 17.9144 20.1349 17.938 20.2059Z" fill="#F5F5F5"/>
<path d="M20.1684 10.1754L20.3516 10.7248L20.9307 10.7292C21.0057 10.7299 21.0368 10.8255 20.9765 10.87L20.5106 11.2141L20.6854 11.7662C20.7081 11.8376 20.6266 11.8969 20.5656 11.8532L20.0945 11.5164L19.6234 11.8532C19.5624 11.8968 19.4811 11.8376 19.5036 11.7662L19.6783 11.2141L19.2125 10.87C19.1522 10.8254 19.1832 10.7299 19.2582 10.7292L19.8373 10.7248L20.0205 10.1754C20.0441 10.1043 20.1446 10.1043 20.1684 10.1754Z" fill="#F5F5F5"/>
<path d="M20.1684 13.0494L20.3516 13.5988L20.9307 13.6032C21.0057 13.6038 21.0368 13.6995 20.9765 13.744L20.5106 14.088L20.6854 14.6401C20.7081 14.7116 20.6266 14.7708 20.5656 14.7271L20.0945 14.3904L19.6234 14.7271C19.5624 14.7707 19.4811 14.7116 19.5036 14.6401L19.6783 14.088L19.2125 13.744C19.1522 13.6994 19.1832 13.6038 19.2582 13.6032L19.8373 13.5988L20.0205 13.0494C20.0441 12.9783 20.1446 12.9783 20.1684 13.0494Z" fill="#F5F5F5"/>
<path d="M20.1684 15.9229L20.3516 16.4723L20.9307 16.4767C21.0057 16.4774 21.0368 16.573 20.9765 16.6175L20.5106 16.9616L20.6854 17.5137C20.7081 17.5851 20.6266 17.6444 20.5656 17.6007L20.0945 17.2639L19.6234 17.6007C19.5624 17.6443 19.4811 17.5851 19.5036 17.5137L19.6783 16.9616L19.2125 16.6175C19.1522 16.5729 19.1832 16.4774 19.2582 16.4767L19.8373 16.4723L20.0205 15.9229C20.0441 15.8519 20.1446 15.8519 20.1684 15.9229Z" fill="#F5F5F5"/>
<path d="M20.1684 18.797L20.3516 19.3464L20.9307 19.3508C21.0057 19.3515 21.0368 19.4471 20.9765 19.4916L20.5106 19.8357L20.6854 20.3878C20.7081 20.4592 20.6266 20.5185 20.5656 20.4748L20.0945 20.138L19.6234 20.4748C19.5624 20.5184 19.4811 20.4592 19.5036 20.3878L19.6783 19.8357L19.2125 19.4916C19.1522 19.447 19.1832 19.3515 19.2582 19.3508L19.8373 19.3464L20.0205 18.797C20.0441 18.7259 20.1446 18.7259 20.1684 18.797Z" fill="#F5F5F5"/>
<path d="M20.1684 21.6706L20.3516 22.22L20.9307 22.2244C21.0057 22.2251 21.0368 22.3207 20.9765 22.3652L20.5106 22.7093L20.6854 23.2614C20.7081 23.3328 20.6266 23.3921 20.5656 23.3484L20.0945 23.0116L19.6234 23.3484C19.5624 23.392 19.4811 23.3328 19.5036 23.2614L19.6783 22.7093L19.2125 22.3652C19.1522 22.3206 19.1832 22.2251 19.2582 22.2244L19.8373 22.22L20.0205 21.6706C20.0441 21.5994 20.1446 21.5994 20.1684 21.6706Z" fill="#F5F5F5"/>
</svg>
