<?xml version="1.0" encoding="utf-8"?>
<!-- Generator: Adobe Illustrator 25.1.0, SVG Export Plug-In . SVG Version: 6.00 Build 0)  -->
<svg version="1.1" id="Layer_1" xmlns="http://www.w3.org/2000/svg" xmlns:xlink="http://www.w3.org/1999/xlink" x="0px" y="0px"
	 viewBox="0 0 103.3 63" style="enable-background:new 0 0 103.3 63;" xml:space="preserve">
<style type="text/css">
	.st0{fill:#BBE2F2;}
	.st1{fill:#009CF8;}
	.st2{fill:#006BDE;}
</style>
<g>
	<g>
		<g>
			<path class="st0" d="M24.4,32.2c0-0.1-0.1-0.2-0.1-0.3c-0.8-1.1-1.2-1.8-1.2-1.8c-0.2-0.4-0.7-0.5-1-0.3c-0.4,0.2-0.5,0.7-0.3,1
				c0,0,0.4,0.7,1.3,1.9c0.2,0.3,0.7,0.4,1,0.2C24.4,32.8,24.5,32.5,24.4,32.2z"/>
		</g>
		<g>
			<path class="st0" d="M71.8,60.8c1.4,0.2,2.9,0.4,4.4,0.5c0.4,0,0.6,0.3,0.7,0.7c0,0,0,0.1,0,0.1c0,0.4-0.4,0.7-0.8,0.7
				c-1.5-0.1-3-0.3-4.5-0.5c-0.4-0.1-0.7-0.4-0.6-0.8C71,61,71.4,60.8,71.8,60.8z"/>
			<path class="st0" d="M80.6,61.5c1.4,0,2.9,0,4.4,0c0.4,0,0.7,0.3,0.8,0.7c0,0,0,0,0,0.1c0,0.4-0.3,0.8-0.7,0.8
				c-1.5,0.1-3,0.1-4.5,0c-0.4,0-0.7-0.4-0.7-0.8C79.8,61.8,80.2,61.5,80.6,61.5z"/>
			<path class="st0" d="M103.3,59.7c0,0.4-0.2,0.7-0.6,0.8c-1.5,0.3-2.9,0.7-4.4,0.9c-0.4,0.1-0.8-0.2-0.9-0.6
				c-0.1-0.4,0.2-0.8,0.6-0.9c1.4-0.3,2.9-0.6,4.3-0.9C102.8,59,103.2,59.2,103.3,59.7C103.3,59.7,103.3,59.7,103.3,59.7z"/>
			<path class="st0" d="M88.7,62c0-0.4,0.3-0.8,0.7-0.8c0.7-0.1,1.4-0.1,2-0.2c0.8-0.1,1.6-0.2,2.3-0.3c0.4-0.1,0.8,0.2,0.8,0.6
				c0,0,0,0,0,0c0,0.4-0.2,0.8-0.6,0.8c-0.8,0.1-1.6,0.2-2.4,0.3c-0.7,0.1-1.4,0.1-2.1,0.2C89.1,62.8,88.7,62.5,88.7,62
				C88.7,62,88.7,62,88.7,62z"/>
			<path class="st0" d="M67.5,60.1c0.3,0.1,0.6,0.3,0.6,0.6c0,0.1,0,0.2,0,0.2c-0.1,0.4-0.5,0.7-0.9,0.6c-1.5-0.3-2.9-0.7-4.4-1
				c-0.4-0.1-0.6-0.5-0.5-0.9c0.1-0.4,0.5-0.6,0.9-0.5C64.6,59.4,66.1,59.8,67.5,60.1z"/>
			<path class="st0" d="M27,35.4c0.9,1.1,1.9,2.2,2.9,3.3c0.1,0.1,0.2,0.3,0.2,0.4c0,0.2-0.1,0.5-0.2,0.6c-0.3,0.3-0.8,0.3-1.1,0
				c-1-1.1-2-2.2-3-3.4c-0.3-0.3-0.2-0.8,0.1-1.1C26.2,35,26.7,35.1,27,35.4z"/>
			<path class="st0" d="M36.3,44.7c0.2,0.1,0.2,0.3,0.3,0.5c0,0.2,0,0.4-0.2,0.6c-0.3,0.3-0.7,0.4-1.1,0.1c-1.1-1-2.3-2-3.3-3
				c-0.3-0.3-0.3-0.8,0-1.1c0.3-0.3,0.8-0.3,1.1,0C34,42.8,35.1,43.8,36.3,44.7z"/>
			<path class="st0" d="M50.9,54.4c0.2,0.1,0.4,0.3,0.4,0.6c0,0.1,0,0.3-0.1,0.4c-0.2,0.4-0.6,0.5-1,0.3c-1.3-0.7-2.7-1.4-4-2.1
				c-0.4-0.2-0.5-0.7-0.3-1c0.2-0.4,0.7-0.5,1-0.3C48.3,53,49.6,53.7,50.9,54.4z"/>
			<path class="st0" d="M43.3,50c0.2,0.1,0.3,0.3,0.3,0.5c0,0.2,0,0.3-0.1,0.5c-0.2,0.3-0.7,0.4-1,0.2c-1.2-0.8-2.5-1.7-3.7-2.6
				c-0.3-0.2-0.4-0.7-0.2-1c0.2-0.3,0.7-0.4,1-0.2C40.9,48.4,42.1,49.2,43.3,50z"/>
			<path class="st0" d="M59,57.7c0.3,0.1,0.5,0.3,0.5,0.6c0,0.1,0,0.2,0,0.3c-0.1,0.4-0.6,0.6-1,0.5c-1.4-0.5-2.8-1-4.2-1.6
				c-0.4-0.2-0.6-0.6-0.4-1c0.2-0.4,0.6-0.6,1-0.4C56.3,56.7,57.6,57.3,59,57.7z"/>
		</g>
	</g>
	<g>
		<g>
			<polygon class="st1" points="19.4,33.3 8.3,39.1 0,-0.1 			"/>
			<polygon class="st2" points="0,-0.1 21.9,30.8 21.9,30.9 24.7,31.8 19.4,33.3 			"/>
			<polygon class="st2" points="24.7,31.8 23.5,28.8 21.9,30.9 			"/>
			<polygon class="st1" points="19.2,27 21.9,30.9 29.9,19.9 0,-0.1 			"/>
		</g>
	</g>
</g>
</svg>
