<svg width="48" height="48" viewBox="0 0 48 48" fill="none" xmlns="http://www.w3.org/2000/svg">
<path d="M21.1875 7.125H46.5L45.5625 9L46.5 10.875V14.625L45.5625 16.5L46.5 18.375V22.125L45.5625 24L46.5 25.875V29.625L45.5625 31.5L46.5 33.375V37.125L45.5625 39L46.5 40.875H1.5L2.4375 39L1.5 37.125V33.375L2.4375 31.5L1.5 29.625V25.875L2.4375 24L1.5 22.125L21.1875 7.125Z" fill="#D60126"/>
<path d="M1.5 37.125H46.5V40.875H1.5V37.125Z" fill="white"/>
<path d="M1.5 29.625H46.5V33.375H1.5V29.625Z" fill="white"/>
<path d="M1.5 22.125H46.5V25.875H1.5V22.125Z" fill="white"/>
<path d="M21.1875 14.625H46.5V18.375H21.1875V14.625Z" fill="white"/>
<path d="M21.1875 7.125H46.5V10.875H21.1875V7.125Z" fill="white"/>
<path d="M1.5 7.125H21.1875V22.125H1.5V7.125Z" fill="#0151BA"/>
<path d="M11.2181 18.3425C8.92978 18.3425 7.07475 16.4874 7.07475 14.1991C7.07475 11.9108 8.92978 10.0557 11.2181 10.0557C11.3741 10.0557 11.5279 10.0651 11.6794 10.0819C10.9427 9.62775 10.0754 9.36516 9.14644 9.36516C6.47672 9.36516 4.3125 11.5294 4.3125 14.1991C4.3125 16.8688 6.47672 19.033 9.14644 19.033C10.0754 19.033 10.9427 18.7704 11.6794 18.3163C11.5279 18.3331 11.3741 18.3425 11.2181 18.3425Z" fill="#FBD84C"/>
<path d="M13.5217 11.6187L14.1107 13.1106L15.6442 12.6409L14.8451 14.0315L16.1685 14.9377L14.583 15.1798L14.6997 16.7795L13.5217 15.6909L12.3439 16.7795L12.4605 15.1798L10.875 14.9377L12.1984 14.0315L11.3993 12.6409L12.9328 13.1106L13.5217 11.6187Z" fill="#FBD84C"/>
</svg>
