<svg width="24" height="24" viewBox="0 0 24 24" fill="none" xmlns="http://www.w3.org/2000/svg">
<g clip-path="url(#clip0_2485_475)">
<path d="M3 9C3 7.93913 3.42143 6.92172 4.17157 6.17157C4.92172 5.42143 5.93913 5 7 5H17C18.0609 5 19.0783 5.42143 19.8284 6.17157C20.5786 6.92172 21 7.93913 21 9V15C21 16.0609 20.5786 17.0783 19.8284 17.8284C19.0783 18.5786 18.0609 19 17 19H7C5.93913 19 4.92172 18.5786 4.17157 17.8284C3.42143 17.0783 3 16.0609 3 15V9Z" stroke="white" stroke-width="1.75" stroke-linecap="round" stroke-linejoin="round"/>
<path d="M10 9.8831C10 9.49445 10.424 9.25439 10.7572 9.45435L14.2854 11.5713C14.6091 11.7655 14.6091 12.2345 14.2854 12.4287L10.7572 14.5457C10.424 14.7456 10 14.5056 10 14.1169V9.8831Z" fill="white"/>
</g>
<defs>
<clipPath id="clip0_2485_475">
<rect width="24" height="24" fill="white"/>
</clipPath>
</defs>
</svg>
